<svg xmlns="http://www.w3.org/2000/svg" viewBox="0 0 133.965 133.967"><g transform="translate(-29.604 -291.889)"><path d="M117.766 309.643l26.828 2.508 1.777 26.889 17.2 20.744-17.753 20.27-2.509 26.826-26.886 1.779-20.745 17.2-20.27-17.759-26.828-2.506-1.78-26.889-17.2-20.744 17.754-20.268 2.508-26.828 26.887-1.779 20.744-17.2z" fill="#387012"/><path d="M78.9 399.975l-22.4-2.094-1.48-22.449-14.358-17.32 14.823-16.922 2.094-22.4 22.448-1.484 17.32-14.359 16.922 14.824 22.4 2.092 1.484 22.449 14.358 17.32-14.822 16.922-2.095 22.4-22.447 1.484-17.32 14.362z" fill="#fff"/><circle cx="45.889" cy="45.889" r="45.889" transform="translate(50.698 314.254)" fill="#fff"/><path d="M96.586 399.742a39.6 39.6 0 1139.6-39.6 39.644 39.644 0 01-39.6 39.6z" fill="#fff" stroke="#387012" stroke-miterlimit="10" stroke-width="3"/><g fill="#387012"><path d="M71.837 349.35c.143-.171 1.1-1.584-.2 2.6-.381 1.232-1.943 4.663 2.119 6.032s9.67.291 9.26-7.028c-.442-7.85-1.524-16.3.6-16.334s1.922 3.215 1.922 3.215 1.933 21.728-6.764 23.956-12.17-6.173-6.937-12.441zM94.028 352.905s1.4-4.081-2.5-8.652-4.125-3.171-4.18.638c0 0-.148.441 2.954 2.718s3.187 2.629 3.726 5.296z"/><path d="M82.221 362.282s12.55-2.707 14.72-11.895 4.3-13.488 5.147-11.189-.886 17.676 1.571 19.584c3.707 2.875 13.535-1.914 10.094-4.686-3.284-2.64-6.983.9-6.983.9s-.271-2.849 3.635-3.717c4.328-.962 7.122 3.329 9.1 5.028s4.717.361 4.717.361-.473 3.541-2.947 3.539-6.114-.508-11.285.777-10.06 1.579-9.872-11.383c0 0-2.807 15.745-17.897 12.681z"/></g><path d="M75.983 366.733v4.208h-4.32v-4.208h-3.168v11.2h3.168v-4.368h4.32v4.368h3.168v-11.2zm13.792 11.2h3.3l-4.96-11.2h-3.12l-4.948 11.2h3.228l.88-2.176h4.74zm-4.688-4.512l1.44-3.588 1.44 3.584zm8.88 4.512h8.508v-2.512h-5.34v-8.688h-3.168zm18.272 0h3.3l-4.964-11.2h-3.12l-4.944 11.2h3.232l.88-2.176h4.736zm-4.688-4.512l1.44-3.588 1.44 3.584zm8.88 4.512h8.512v-2.512h-5.344v-8.688h-3.168z" fill="#387012"/></g></svg>