<?xml version="1.0" encoding="utf-8"?>
<!-- Generator: Adobe Illustrator 21.1.0, SVG Export Plug-In . SVG Version: 6.00 Build 0)  -->
<svg version="1.1" id="Logotype" xmlns="http://www.w3.org/2000/svg" xmlns:xlink="http://www.w3.org/1999/xlink" x="0px" y="0px"
	 viewBox="0 0 179.3 81.6" style="enable-background:new 0 0 179.3 81.6;" xml:space="preserve">
<style type="text/css">
	.st0{fill:#FFFFFF;}
</style>
<g id="Lockup">
	<g id="eats">
		<path class="st0" d="M161.7,49.8l-2.8-0.7c-7.7-2-11.3-3.1-11.3-6c0-3.1,3.5-4.7,8.1-4.7c5.7,0,9.2,2.1,11.2,6.5
			c0.4,0.9,1,1,1.8,0.7l8.2-3.1c0.9-0.4,1.1-1,0.7-1.8c-3.4-8.2-10.9-12.6-21.3-12.6c-12.9,0-20.6,6.4-20.6,15.6
			c0,8.4,6.1,12,17.9,15.2l2.7,0.7c7.2,1.8,11.3,3,11.3,6.2c0,3.7-4.1,5.4-9.6,5.4c-6.7,0-11.3-3-13.5-8.5c-0.3-0.9-1-1.1-1.8-0.7
			l-7.4,3.5c-0.7,0.4-1.1,1-0.9,1.8c4.1,10.1,11.5,14.2,23.2,14.2c12.9,0,21.5-6,21.5-15.7C179.3,56.3,173.2,52.7,161.7,49.8z"/>
		<path class="st0" d="M25.9,28.1C11.3,28.1,0,38.9,0,54.4C0,71,11.3,81.6,25.9,81.6c9.5,0,18.3-3.1,23-12.5
			c0.4-0.9,0.1-1.4-0.7-1.8l-8.1-3.7c-0.8-0.4-1.4-0.1-1.8,0.7c-2.1,4.3-6.7,6.2-12.3,6.2c-4.8,0-9.8-2.2-12.2-8
			c-0.8-2.3,0-3.8,2.5-3.8h33c0.9,0,1.4-0.6,1.4-1.4v-1.7C50.7,38.6,41.1,28.1,25.9,28.1z M12.9,49.4c1.7-7.6,7.5-10.6,13.1-10.6
			c7.2,0,11.1,3.5,12,10.6H12.9z"/>
		<path class="st0" d="M99.7,64.9V48.3c0-13.8-8.4-20.1-21.8-20.1c-12,0-20,5.4-22.8,12.8c-0.3,0.9,0.1,1.6,0.9,1.8l8.2,3.7
			c0.9,0.4,1.4,0.1,1.8-0.7c2.4-5.2,6-6.8,11.9-6.8c5.2,0,9.1,2.3,9.1,5.7c0,1.6-0.7,2.6-2.3,3.4c-2.3,1.1-6.8,1.7-14,3.4
			c-10.1,2.4-17,5.4-17,14.7c0,10.3,8.6,15.5,18.6,15.5c7.1,0,13.3-2.6,16-6.9h0.1c0.4,1.6,1,3.5,1.8,5c0.3,0.6,0.9,0.9,1.6,0.9
			h10.3c1.1,0,1.6-0.7,1-1.7C100.9,75.5,99.7,71.7,99.7,64.9z M87.2,62.7c0,5-6.8,8.4-13.3,8.4c-4.8,0-8.1-2-8.1-5.4
			c0-4,4.7-5.2,8.9-6.1l12.5-2.8V62.7z"/>
		<path class="st0" d="M131.3,69c-0.4-0.9-1-1-1.8-0.7c-2.3,1-4.3,1.4-5.7,1.4c-3.3,0-5.5-2-5.5-6.2V43.9c0-2.1,1.4-3.5,3.5-3.5h9.8
			c0.9,0,1.4-0.6,1.4-1.4v-8c0-0.9-0.6-1.4-1.4-1.4h-13.3V18.5c0-0.9-0.6-1.4-1.4-1.4h-9.6c-0.9,0-1.4,0.6-1.4,1.4v46.2
			c0,10.9,6.4,16.3,16.6,16.3c4.1,0,7.8-1,11.8-2.8c0.9-0.3,1.1-1.1,0.7-1.8L131.3,69z"/>
	</g>
	<g id="UBER">
		<path class="st0" d="M13.1,18.8c5.4,0,9-2,9-7.8V0h-3.5c-0.3,0-0.5,0.2-0.5,0.5v10.4c0,3.5-1.5,4.9-5.1,4.9s-5.1-1.4-5.1-4.9V0
			H4.5C4.2,0,4,0.2,4,0.5V11C4,16.8,7.7,18.8,13.1,18.8z"/>
		<path class="st0" d="M55.4,18.5h13c0.3,0,0.4-0.1,0.5-0.3l1-2.5c0.1-0.2,0-0.2-0.2-0.2H57.9v-3.3c0-1.1,0.6-1.6,2.3-1.6h5.2
			c0.3,0,0.4-0.1,0.5-0.3l1-2.4c0.1-0.2,0-0.2-0.2-0.2h-8.8V3h10.5c0.3,0,0.4-0.1,0.5-0.3l1-2.5C70,0.1,70,0,69.8,0h-14
			C54.5,0,54,0.4,54,1.3v16.1C54.1,18.2,54.4,18.5,55.4,18.5z"/>
		<path class="st0" d="M31,18.5h9.7c3.7,0,6.3-1.4,6.3-5.1c0-2.2-0.9-4.1-3-4.6c1.4-0.8,2-2.3,2-4.1C46,0.6,42.7,0,39.2,0h-7.9
			c-1.3,0-1.8,0.4-1.8,1.3v16.1C29.6,18.2,29.9,18.5,31,18.5z M33.4,3h6.1c2,0,2.6,0.8,2.6,2.4s-0.6,2.4-2.6,2.4h-6.1V3z M33.4,12.1
			c0-1.1,0.6-1.6,2.3-1.6h4.5c2.2,0,2.8,0.8,2.8,2.5s-0.6,2.5-2.8,2.5h-6.8V12.1z"/>
		<path class="st0" d="M77.1,18.5h3.4v-5.4c0-1.1,0.6-1.6,2.3-1.6h3.4l3.7,6.7c0.1,0.2,0.2,0.3,0.5,0.3H94c0.2,0,0.2-0.2,0.2-0.3
			L90,11.1c2.1-0.5,3.7-1.9,3.7-5.4c0-4.5-2.8-5.7-7.4-5.7h-7.9c-1.3,0-1.8,0.4-1.8,1.3V18C76.6,18.3,76.8,18.5,77.1,18.5z M80.5,3
			h6.4c2.4,0,2.9,0.9,2.9,2.8s-0.5,2.8-2.9,2.8h-6.4V3z"/>
	</g>
</g>
</svg>
