<svg xmlns="http://www.w3.org/2000/svg" viewBox="0 0 309.69 168.79"><title>Logo Restau at Home</title><g fill="#fff"><path d="M261.52,366a12.83,12.83,0,0,1-.68,1.22,10.57,10.57,0,0,1-1,1.37,6.93,6.93,0,0,1-1.29,1.19,3.44,3.44,0,0,1-1.48.66,2.16,2.16,0,0,1-1.66-.32,5.1,5.1,0,0,1-1.39-1.55,7.25,7.25,0,0,1-.69.95,7.52,7.52,0,0,1-.94.93,6.39,6.39,0,0,1-1.13.76,3.87,3.87,0,0,1-1.23.44,3.47,3.47,0,0,1-2.65-.63,3.91,3.91,0,0,1-1-1.11,4.65,4.65,0,0,1-.59-1.62,8.23,8.23,0,0,1-.09-2.23,12.35,12.35,0,0,1,1.31-4.56,9.73,9.73,0,0,1,1.26-1.93,7.41,7.41,0,0,1,1.59-1.44,4.83,4.83,0,0,1,1.84-.76.83.83,0,0,1,.53,0,1.12,1.12,0,0,1,.35.23l.29.28a.66.66,0,0,0,.33.17,1.1,1.1,0,0,0,.36,0,2.2,2.2,0,0,0,.36,0l.32-.06.32-.07a1.82,1.82,0,0,1,.4,0,.6.6,0,0,1,.36.12,1.09,1.09,0,0,1,.29.36,2.45,2.45,0,0,1,.2.67,10,10,0,0,1,.13,1.53c0,.57,0,1.15,0,1.75s0,1.2,0,1.8a9.76,9.76,0,0,0,.16,1.67,3.72,3.72,0,0,0,.3,1,.51.51,0,0,0,.58.29,1.57,1.57,0,0,0,.6-.26,4.47,4.47,0,0,0,.59-.51,7.46,7.46,0,0,0,.56-.66,9,9,0,0,0,.52-.74c.37-.59.73-1.25,1.09-2Zm-12.26,1a4.69,4.69,0,0,0,.17.67,1.84,1.84,0,0,0,.28.56,1.24,1.24,0,0,0,.42.37.86.86,0,0,0,.56.06,1.27,1.27,0,0,0,.87-.62,4.32,4.32,0,0,0,.54-1.21,7.6,7.6,0,0,0,.26-1.41,7.18,7.18,0,0,0,0-1.17l.12-4.31a2.63,2.63,0,0,0-1.08.49,4.16,4.16,0,0,0-.89,1,7.22,7.22,0,0,0-.7,1.29,9.2,9.2,0,0,0-.47,1.46,9.71,9.71,0,0,0-.21,1.49A6,6,0,0,0,249.26,367Z" transform="translate(-152.54 -259.37)"/><path d="M271.66,364.49c-.81.69-1.54,1.3-2.17,1.82s-1.21,1-1.71,1.32a11.75,11.75,0,0,1-1.37.86,4.16,4.16,0,0,1-1.13.4,2.94,2.94,0,0,1-2-.31,5,5,0,0,1-1.71-1.63,12.07,12.07,0,0,1-1.35-2.81,24.67,24.67,0,0,1-1-3.86c-.1-.57-.19-1.17-.25-1.82s-.12-1.3-.15-1.95a5.23,5.23,0,0,1-.67,0h-.51l-.69,0-1.19.06a1.27,1.27,0,0,1-.55-.07.7.7,0,0,1-.32-.23,1.07,1.07,0,0,1-.16-.32l-.07-.3a.49.49,0,0,1,.2-.48,2.21,2.21,0,0,1,.67-.35,6.94,6.94,0,0,1,.93-.25c.35-.06.68-.12,1-.16l.85-.13a2.7,2.7,0,0,0,.52-.12,30.6,30.6,0,0,1,.31-3.86,20.33,20.33,0,0,1,.74-3.41,9,9,0,0,1,1.19-2.52,2.64,2.64,0,0,1,1.66-1.16,2,2,0,0,1,1.17.14,3.17,3.17,0,0,1,1,.75,4.8,4.8,0,0,1,.78,1.23,6.9,6.9,0,0,1,.47,1.54,6.06,6.06,0,0,1,.06,1.49,11.51,11.51,0,0,1-.26,1.67,16.35,16.35,0,0,1-.51,1.76c-.21.6-.43,1.19-.68,1.79a3.52,3.52,0,0,0,.43-.05l.69-.1.85-.12.88-.12.8-.11.61-.08a.48.48,0,0,1,.46.21,1.7,1.7,0,0,1,.25.65,1.23,1.23,0,0,1-.14.86.84.84,0,0,1-.57.42l-5.42,1-.63,1.25c-.22.42-.41.79-.6,1.12l.21,1.74c0,.25.07.5.11.76s.07.52.11.78.07.5.11.74.07.45.11.65a4.86,4.86,0,0,0,.37,1.26,2.24,2.24,0,0,0,.56.78,1.51,1.51,0,0,0,.74.36,2.42,2.42,0,0,0,.89,0,2.69,2.69,0,0,0,.72-.28,7.52,7.52,0,0,0,.91-.56c.32-.23.66-.49,1-.78s.69-.62,1-.95.65-.69,1-1a12.17,12.17,0,0,0,.78-1.08ZM264,347.42c0-.11-.05-.22-.08-.35a1.33,1.33,0,0,0-.16-.34.69.69,0,0,0-.27-.24.67.67,0,0,0-.43,0q-.37.06-.63.78A9.89,9.89,0,0,0,262,349c-.12.71-.2,1.49-.26,2.34s-.1,1.66-.14,2.46l.44,0,.44,0c.2-.53.4-1.1.61-1.72s.38-1.21.53-1.8.26-1.12.34-1.62A4.13,4.13,0,0,0,264,347.42Z" transform="translate(-152.54 -259.37)"/><path d="M408.6,303.08c-.14-.7-.27-1.38-.39-2.05s-.26-1.36-.41-2.09-.3-1.54-.46-2.43a16.53,16.53,0,0,1-1.46,2.26c-.62.82-1.32,1.67-2.09,2.54s-1.62,1.72-2.5,2.54-1.77,1.57-2.64,2.24a20.18,20.18,0,0,1-2.5,1.7,6.89,6.89,0,0,1-2.09.85,1.83,1.83,0,0,1-1.31-.16,2.34,2.34,0,0,1-.83-1,6.75,6.75,0,0,1-.55-1.63c-.15-.63-.29-1.32-.43-2.08a18.61,18.61,0,0,1-.15-2.22q0-1.6,0-3.75c0-1.43,0-3,0-4.63s0-3.25,0-4.8-.06-3-.12-4.26a24,24,0,0,0-.31-3,2.16,2.16,0,0,0-1.56-1.65,6.48,6.48,0,0,0-3.42-.13,7.8,7.8,0,0,0-3.15,1.27,2.62,2.62,0,0,0-1.35,2l-.25,21.38a11,11,0,0,1-.44,3.08,9.14,9.14,0,0,1-1.09,2.42,6.67,6.67,0,0,1-1.52,1.67,4.24,4.24,0,0,1-1.75.8,1.74,1.74,0,0,1-1.11-.13,2.53,2.53,0,0,1-.89-.72,4.49,4.49,0,0,1-.64-1.12,6.69,6.69,0,0,1-.4-1.38s0-.46-.05-1.29-.05-1.94-.08-3.3-.06-2.93-.1-4.67-.07-3.53-.1-5.38-.06-3.67-.1-5.48-.06-3.46-.08-4.94c-.08-.46-.47-.79-1.15-1a8.18,8.18,0,0,0-3.19,0,4.69,4.69,0,0,0-2.21,1.11,7.09,7.09,0,0,0-1.5,2,12.36,12.36,0,0,0-.93,2.52,24.71,24.71,0,0,0-.5,2.66c-.11.86-.17,1.65-.2,2.36s0,1.29,0,1.71c0,4.28.08,8.07.17,11.39,0,1,.07,2,.13,2.92l0,0c-.45.73-.94,1.44-1.47,2.14a21.11,21.11,0,0,1-1.63,1.91,11.19,11.19,0,0,1-1.68,1.47,4.27,4.27,0,0,1-1.71.75,1.44,1.44,0,0,1-1.68-.81,10.22,10.22,0,0,1-.9-2.92,29.9,29.9,0,0,1-.45-4.81c0-1.71,0-3.43,0-5.16s0-3.41,0-5a26.17,26.17,0,0,0-.39-4.4,7.37,7.37,0,0,0-.58-2,2.86,2.86,0,0,0-.84-1,1.9,1.9,0,0,0-1-.35,5.15,5.15,0,0,0-1.16.08l-.91.19-.92.19c-.35.06-.7.1-1,.13a3.73,3.73,0,0,1-1.05-.09,1.85,1.85,0,0,1-.93-.5l-.84-.79a3.68,3.68,0,0,0-1-.67,2.53,2.53,0,0,0-1.53-.1,13.81,13.81,0,0,0-5.29,2.2,22.31,22.31,0,0,0-4.55,4.18,28.55,28.55,0,0,0-3.62,5.57,36.23,36.23,0,0,0-2.5,6.44,34.93,34.93,0,0,0-1.21,6.71c0,.45-.05.88-.06,1.32-.71.83-1.44,1.65-2.21,2.44-1,1-1.94,1.88-2.94,2.74s-2,1.61-2.91,2.27a22.44,22.44,0,0,1-2.6,1.63,7.21,7.21,0,0,1-2.06.8,7,7,0,0,1-2.57,0,4.5,4.5,0,0,1-2.15-1,6.65,6.65,0,0,1-1.62-2.24,14.44,14.44,0,0,1-1.09-3.62c-.1-.57-.21-1.2-.32-1.88s-.22-1.38-.32-2.12l-.33-2.23c-.11-.75-.21-1.48-.31-2.19-.22-1.64-.43-3.31-.62-5,.52-1,1.09-2,1.69-3.23s1.21-2.4,1.8-3.62l15.6-2.86a2.44,2.44,0,0,0,1.63-1.22,3.38,3.38,0,0,0,.39-2.46,4.85,4.85,0,0,0-.72-1.89,1.31,1.31,0,0,0-1.33-.59c-.47.05-1.06.13-1.76.23l-2.29.34-2.54.36-2.44.34-2,.3c-.57.09-1,.14-1.23.16q1-2.58,1.93-5.18a49,49,0,0,0,1.44-5.08,32.12,32.12,0,0,0,.72-4.79,16.83,16.83,0,0,0-.2-4.31,18.42,18.42,0,0,0-1.37-4.43,13.86,13.86,0,0,0-2.26-3.51,8.7,8.7,0,0,0-2.94-2.15,5.65,5.65,0,0,0-3.37-.4,7.57,7.57,0,0,0-4.76,3.37,25.67,25.67,0,0,0-3.39,7.26,61.25,61.25,0,0,0-2.11,9.83,92.52,92.52,0,0,0-.84,11.14,7.87,7.87,0,0,1-1.48.33l-2.44.39c-.92.13-1.87.3-2.85.5A18.06,18.06,0,0,0,282,293a6.41,6.41,0,0,0-1.91,1,1.35,1.35,0,0,0-.57,1.38c.05.25.11.54.2.87a2.74,2.74,0,0,0,.46.92,2.19,2.19,0,0,0,.93.67,3.64,3.64,0,0,0,1.58.2c1.5-.11,2.64-.17,3.43-.21s1.45,0,2,0l1.47,0c.47,0,1.12,0,1.95,0q.13,2.79.43,5.59c.2,1.87.45,3.61.75,5.24a74.22,74.22,0,0,0,2.51,10.06c-.57.53-1.14,1-1.72,1.49q-1.74,1.39-3.42,2.58L286.83,325a24.27,24.27,0,0,0-2.83,2.34c-.31-1.73-.65-3.23-1-4.48a33.67,33.67,0,0,0-1.11-3.28c-.38-.94-.75-1.76-1.1-2.47s-.69-1.37-1-2a16.9,16.9,0,0,1-.85-1.95,13.92,13.92,0,0,1-.61-2.26,4.35,4.35,0,0,1,.71-1.54c.44-.71.91-1.48,1.4-2.33a23.13,23.13,0,0,0,1.29-2.59,4.08,4.08,0,0,0,.38-2.29,9.43,9.43,0,0,0-.3-1.15,2.49,2.49,0,0,0-.8-1.17,3.81,3.81,0,0,0-1.73-.76,8.6,8.6,0,0,0-3.09.13,6.27,6.27,0,0,0-2.07.73,8,8,0,0,0-1.58,1.21,9.72,9.72,0,0,0-1.22,1.51,14.83,14.83,0,0,0-.92,1.64c-1.33,2.48-2.41,4.55-3.23,6.19l-2.09,4.19c-.58,1.14-5.78,8.82-5.78,8.82a42.72,42.72,0,0,1-3.26,4,44.48,44.48,0,0,1-4.26,4.07A33.54,33.54,0,0,1,247,335a15.53,15.53,0,0,1-5,1.92,6.2,6.2,0,0,1-1.47.1,4.28,4.28,0,0,1-1.38-.33,5.74,5.74,0,0,1-1.41-.92,14.26,14.26,0,0,1-1.53-1.61,28.26,28.26,0,0,0,6.06-3.92,24.64,24.64,0,0,0,4.5-4.94,18.74,18.74,0,0,0,2.56-5.38,11.48,11.48,0,0,0,.32-5.27,10.58,10.58,0,0,0-1.58-4,9.52,9.52,0,0,0-2.84-2.78,10.61,10.61,0,0,0-3.76-1.43,12.36,12.36,0,0,0-4.37,0,13.12,13.12,0,0,0-4.91,1.93,15.35,15.35,0,0,0-3.66,3.44,19.11,19.11,0,0,0-2.52,4.49,26.49,26.49,0,0,0-1.44,5.08,28.68,28.68,0,0,0-.45,5.22,27.93,27.93,0,0,0,.43,4.9,21.9,21.9,0,0,0,2.13,6.27,16.21,16.21,0,0,0,3.86,4.88,14.09,14.09,0,0,0,5.45,2.85,15.46,15.46,0,0,0,6.94.15,21.34,21.34,0,0,0,4.71-1.42A30.38,30.38,0,0,0,252,341.9a34.49,34.49,0,0,0,3.84-2.86q1.8-1.55,3.32-3.09c.3-.3.58-.62.87-.93a8,8,0,0,0,1.71,3.06,7.71,7.71,0,0,0,3,2,11.75,11.75,0,0,0,3.89.74,22,22,0,0,0,4.55-.37,36.66,36.66,0,0,0,6.91-2,54.14,54.14,0,0,0,7-3.4,58,58,0,0,0,6.4-4.28,37.62,37.62,0,0,0,5-4.57c.33.56.67,1.1,1,1.6a14.28,14.28,0,0,0,4.93,4.66,8.64,8.64,0,0,0,5.79.88,11.85,11.85,0,0,0,3.25-1.18,32.89,32.89,0,0,0,3.91-2.48c1.45-1.05,3.08-2.33,4.91-3.84,1-.85,2.15-1.79,3.34-2.8.11.2.21.41.33.6a11.32,11.32,0,0,0,2.93,3.2,10.29,10.29,0,0,0,3.69,1.68,9.75,9.75,0,0,0,4,.09,11.52,11.52,0,0,0,3.54-1.28,19.58,19.58,0,0,0,3.23-2.2,21.11,21.11,0,0,0,2.72-2.71,19.67,19.67,0,0,0,2-2.75,14.15,14.15,0,0,0,4,4.45,6.29,6.29,0,0,0,4.79.92,10.42,10.42,0,0,0,4.27-1.92,21.89,21.89,0,0,0,3.69-3.45c.14-.16.26-.33.4-.5a7.12,7.12,0,0,0,1.6,1.9,5.17,5.17,0,0,0,2.37,1.12,7.1,7.1,0,0,0,2.6,0,9.6,9.6,0,0,0,3.23-1.28,16.67,16.67,0,0,0,3.08-2.48,26,26,0,0,0,2.8-3.39,34.69,34.69,0,0,0,2.45-4.08,26.15,26.15,0,0,0,1.57,3.22,10.88,10.88,0,0,0,1.82,2.38,5.94,5.94,0,0,0,2.2,1.36,5.6,5.6,0,0,0,2.76.13,15,15,0,0,0,3.25-1,27.33,27.33,0,0,0,3.41-1.8c1.13-.7,2.24-1.47,3.34-2.31s2.11-1.7,3.05-2.58,1.8-1.72,2.56-2.56a22.71,22.71,0,0,0,1.86-2.32C408.89,304.57,408.74,303.78,408.6,303.08ZM234,327.52c-.11-.59-.21-1.32-.31-2.17a20.79,20.79,0,0,1-.13-2.66,15.75,15.75,0,0,1,.29-2.8,8.53,8.53,0,0,1,.91-2.6,6.32,6.32,0,0,1,1.76-2.07,6.48,6.48,0,0,1,2.87-1.2,2.63,2.63,0,0,1,2.26.91,5.22,5.22,0,0,1,.82,2.86,5,5,0,0,1-.53,2.86,13.22,13.22,0,0,1-2,3,14.51,14.51,0,0,1-2.85,2.52A8.22,8.22,0,0,1,234,327.52Zm40.32,3.66a4.59,4.59,0,0,1-1.39,1.7,5.94,5.94,0,0,1-2.53,1,4.51,4.51,0,0,1-2.43-.19,10.39,10.39,0,0,1-2-1c-.6-.4-1.14-.76-1.61-1.1a2.41,2.41,0,0,0-1.28-.47c.79-1,2.35-3.18,2.35-3.18l6.29-9.07.75,1.48c.29.57.57,1.2.85,1.86s.53,1.37.76,2.11a17.83,17.83,0,0,1,.55,2.21,12.25,12.25,0,0,1,.2,2.46A5.57,5.57,0,0,1,274.33,331.18ZM299.26,290c.08-2.28.21-4.64.36-7.07s.39-4.69.7-6.75a28.12,28.12,0,0,1,1.2-5.15c.49-1.38,1.09-2.13,1.79-2.26a2,2,0,0,1,1.26.1,2,2,0,0,1,.78.7,3.71,3.71,0,0,1,.45,1c.11.36.19.69.25,1A10.84,10.84,0,0,1,306,275c-.21,1.43-.52,3-.94,4.68s-.93,3.42-1.51,5.19-1.16,3.43-1.72,5l-1.29.08C300.09,289.93,299.67,290,299.26,290Zm43.93,20.78a22.41,22.41,0,0,1-.76,4.05,12.48,12.48,0,0,1-1.54,3.51,3.69,3.69,0,0,1-2.48,1.8,2.45,2.45,0,0,1-1.63-.18,3.59,3.59,0,0,1-1.2-1,6.15,6.15,0,0,1-.82-1.62,13.12,13.12,0,0,1-.5-1.94,16.94,16.94,0,0,1-.23-3.91,23.64,23.64,0,0,1,.58-4.28,24.91,24.91,0,0,1,1.33-4.22,20.51,20.51,0,0,1,2-3.72,12.44,12.44,0,0,1,2.58-2.8,7,7,0,0,1,3.1-1.43l-.3,12.4A24.41,24.41,0,0,1,343.19,310.75Z" transform="translate(-152.54 -259.37)"/><path d="M406.66,328.25l-.46-.12A2.79,2.79,0,0,0,406.66,328.25Z" transform="translate(-152.54 -259.37)"/><path d="M428.55,410.87a53.41,53.41,0,0,1-13.42.41c-2.29-.23-4.73-.71-6.54-3.62a2.21,2.21,0,0,1,2.06-2.12q6.84-.89,13.69-1.34c3.09-.2,9.92.36,10,3.29S430.44,410.57,428.55,410.87Z" transform="translate(-152.54 -259.37)"/><path d="M441.29,373.92c.06,4.53-.52,9.31-3.18,13-3.53,4.87-9.85,6.73-15.77,7.77-3.87.68-7.86,1.14-11.69.27s-7.48-3.3-8.9-7c-1.79-4.57.23-9.62,1.1-14.45a30.58,30.58,0,0,0-1.9-17.09c-.72-1.72-1.63-3.45-1.62-5.32,0-2.6,1.77-4.87,3.73-6.57,6.5-5.66,19.64-8.37,27.12-2.72C438.32,348,441.16,364.47,441.29,373.92Z" transform="translate(-152.54 -259.37)"/><path d="M402.82,362.77a29.93,29.93,0,0,1,0,10.76c-.86,4.84-2.89,9.89-1.1,14.47,1.41,3.64,5.09,6.08,8.9,6.95s7.83.41,11.68-.27a42.6,42.6,0,0,0,7.25-1.85c-7.08-.52-13.74-3.81-17.37-10.41-4.47-8.12-2.44-19.15,4.34-25.36-1,.34,4.93-1.65,9.17-2.8,3.41-.92,7.42-1.68,11.15-3-1.66-3.91-3.86-7.32-6.69-9.46-7.48-5.66-20.62-2.93-27.12,2.72-2,1.7-3.73,4-3.73,6.57,0,1.87.9,3.6,1.62,5.32A30,30,0,0,1,402.82,362.77Zm7.84-3.52c.79-.33,1.59-.64,2.38-.94C412.24,358.61,411.45,358.93,410.66,359.25Zm-7,3.12c1-.48,2-.94,2.94-1.39C405.61,361.43,404.63,361.89,403.65,362.37Zm4.07-1.88,1.95-.84Z" transform="translate(-152.54 -259.37)"/><path d="M448.72,344.4c4.4-5.82,2.36-14.74-2.9-19.8s-12.82-6.93-20.09-7.51c-11.06-.88-22.68,1-31.83,7.23s-15.35,17.45-13.73,28.43c.55,3.7,2.05,7.42,5,9.78,5.69,4.6,14.17,2.37,20.74-.87A118.32,118.32,0,0,1,428,353.55C434.8,351.71,444.14,350.46,448.72,344.4Z" transform="translate(-152.54 -259.37)"/><path d="M440.41,362.93c1,.06,3.48.33,4.35-.31a2.29,2.29,0,0,0,.84-1.06c.16-.54-.09-.9-.3-1.38a.76.76,0,0,1,1.26-.82c1.31,1.28.58,3.32-.68,4.3s-4.76,1.34-5.94.2C439.58,363.51,440,362.91,440.41,362.93Z" transform="translate(-152.54 -259.37)"/><path d="M447.39,357.26a1.11,1.11,0,0,1,.25.45,1.34,1.34,0,0,1-.16,1,2.5,2.5,0,0,1-2.11,1.27,1.5,1.5,0,0,1-1.17-.47,1.58,1.58,0,0,1-.15-1.44A2,2,0,0,1,447.39,357.26Z" transform="translate(-152.54 -259.37)"/><path d="M445.74,360.55a1,1,0,0,0,.74-.27.81.81,0,0,0,.25-1,.72.72,0,0,0-.62-.25,1.8,1.8,0,0,0-.66.23C444.57,359.69,445,360.51,445.74,360.55Z" transform="translate(-152.54 -259.37)"/><path d="M445.35,393.24A2.45,2.45,0,0,0,446.9,392a1.61,1.61,0,0,0-1.56-2.21,2.73,2.73,0,0,0-1.6.76c-.64.54-1.81,1.53-1.21,2.42S444.58,393.51,445.35,393.24Z" transform="translate(-152.54 -259.37)"/><path d="M438.29,385.38a9.62,9.62,0,0,1,4.85,2.25,3.6,3.6,0,0,1,1.36,3.31.59.59,0,0,1-1.08.12c-.48-1.05-.6-1.95-1.64-2.66a34.7,34.7,0,0,0-3.93-2C437.24,386.09,437.73,385.29,438.29,385.38Z" transform="translate(-152.54 -259.37)"/><path d="M396,374.07c1.43-4.26,6.34-1.94,8.86-.05a.56.56,0,0,1-.48,1c-2.25-.57-5.4-3.56-6.93-.42C397.09,375.34,395.72,374.93,396,374.07Z" transform="translate(-152.54 -259.37)"/><path d="M397.17,393c1.25.68,2.14,1.38,3.66,1a5.58,5.58,0,0,0,3.16-2.35.59.59,0,0,1,1,.59c-1.22,2.82-7.18,5.3-8.7,1.45C396.11,393.11,396.76,392.73,397.17,393Z" transform="translate(-152.54 -259.37)"/><path d="M396.83,374.09A1.8,1.8,0,0,1,398,376a1.32,1.32,0,0,1-.29.66,1.6,1.6,0,0,1-1.6.3,3.77,3.77,0,0,1-1.91-1.19,1.76,1.76,0,0,1-.51-1.19,1.42,1.42,0,0,1,1.23-1.24,2.32,2.32,0,0,1,1.75.6Z" transform="translate(-152.54 -259.37)"/><path d="M394.1,394.85a2,2,0,0,0,1,2.93,1.7,1.7,0,0,0,1,.24c.63-.12.93-.84,1.09-1.46.26-1,.81-3.67-.29-4.43C395.44,391.12,394.38,393.89,394.1,394.85Z" transform="translate(-152.54 -259.37)"/><path d="M458.05,351c-2.88,2.4-3.53-.54-4.26,2.87-.1,1.63-1.47.8-1.9.28h0c-.53-.26-.75-1.31.6-2.77,2.88-2.41,3.53.54,4.26-2.87.1-1.63,1.47-.8,1.9-.28h0C459.18,348.46,459.4,349.51,458.05,351Z" transform="translate(-152.54 -259.37)"/><path d="M455.72,360.79c2.58.86,3.14,2.12,5.34,1.88.91-.05,1.29,1.07,1.15,1.75h0c0,.69-.89,1.23-2,.9-2.58-.86-3.14-2.12-5.34-1.88-.91.05-1.29-1.07-1.15-1.75h0C453.73,361,454.58,360.46,455.72,360.79Z" transform="translate(-152.54 -259.37)"/><path d="M385.28,401.19c2.24-1.65,2.82.19,3.66-2.54.25-1.25,1.26-.35,1.57.13h0c.42.33.41,1.53-.66,2.49-2.24,1.65-2.82-.18-3.65,2.55-.26,1.24-1.27.34-1.58-.14h0C384.21,403.36,384.21,402.16,385.28,401.19Z" transform="translate(-152.54 -259.37)"/><path d="M388.84,387.93c-1.43-1-2.38-1.87-4.28-.57-.71.61-1.38.46-1.5-.08h0c-.23-.41.57-1.76,2.08-2.08,3.32-.21,3.51.89,5.53,2,.79.7.27,1.33-.18,1.38h0A2,2,0,0,1,388.84,387.93Z" transform="translate(-152.54 -259.37)"/><g fill="#000"><ellipse cx="421.38" cy="364.3" rx="1.9" ry="2.18" transform="translate(-256.09 -81.42) rotate(-21.3)"/><ellipse cx="431.47" cy="362.08" rx="1.9" ry="2.18" transform="translate(-254.6 -77.91) rotate(-21.3)"/><path d="M421.75,374.24s11.08,7.91,12.9-2.61c0,0,.55-.66.56.66a27.56,27.56,0,0,1-.69,8.16c-.29,1-3.54,3.9-6.21,1.8a37.55,37.55,0,0,1-6.69-7.63C421.37,374.27,422,374.6,421.75,374.24Z" transform="translate(-152.54 -259.37)"/><path d="M421,375.65c-.77-1.63,1.08-2,2.21-2,.2,0,.3.33.13.41-.71.33-2.29.13-1.85,1.44A.26.26,0,1,1,421,375.65Z" transform="translate(-152.54 -259.37)"/><path d="M433.56,371.81c.91-1.64,2.22-.35,2.82.6.1.17-.1.46-.26.37-.65-.4-1.33-1.84-2.15-.66C433.77,372.4,433.38,372.14,433.56,371.81Z" transform="translate(-152.54 -259.37)"/></g><path d="M428,382a4.42,4.42,0,0,0,.75.53,3.69,3.69,0,0,0,3.79-.13,4.47,4.47,0,0,0,2-1.95,4.13,4.13,0,0,0-.78-.15A7.6,7.6,0,0,0,428,382Z" transform="translate(-152.54 -259.37)"/><path d="M178,353.91" transform="translate(-152.54 -259.37)"/><path d="M377.7,373.7a43.16,43.16,0,0,1-3.28,4,45.68,45.68,0,0,1-4.27,4,33.57,33.57,0,0,1-4.83,3.38,15.43,15.43,0,0,1-5,1.89,6.18,6.18,0,0,1-1.47.09,3.83,3.83,0,0,1-1.38-.34,5.33,5.33,0,0,1-1.4-.92,13.61,13.61,0,0,1-1.53-1.62,28.16,28.16,0,0,0,6.08-3.89,24.7,24.7,0,0,0,4.52-4.92,18.58,18.58,0,0,0,2.58-5.36,11.46,11.46,0,0,0,.34-5.26,10.43,10.43,0,0,0-1.55-4,9.4,9.4,0,0,0-2.83-2.79,10.38,10.38,0,0,0-3.76-1.45,12.06,12.06,0,0,0-4.36,0,12.91,12.91,0,0,0-4.92,1.9,15.15,15.15,0,0,0-3.67,3.43,18.84,18.84,0,0,0-2.54,4.47,27.19,27.19,0,0,0-1.46,5.07,28.64,28.64,0,0,0-.48,5.22,29,29,0,0,0,.41,4.9,23.3,23.3,0,0,0,.75,3l0,.05c-.47.65-1,1.28-1.51,1.89a16.34,16.34,0,0,1-1.67,1.66,14.64,14.64,0,0,1-1.75,1.28A5,5,0,0,1,337,390c-.55.1-1.09-.28-1.63-1.14a9.67,9.67,0,0,1-1.21-3.47,49.21,49.21,0,0,1-.66-5.36c-.11-1.7-.18-3.38-.23-5.05s-.12-3.36-.23-5.08a49.08,49.08,0,0,0-.66-5.37,3.4,3.4,0,0,0-1.83-2.59,5.26,5.26,0,0,0-3.41-.42,4.13,4.13,0,0,0-2.69,1.63,20.44,20.44,0,0,0-1.86,3.16c-.62,1.26-1.26,2.7-1.94,4.33s-1.3,3.19-1.89,4.66-1.09,2.73-1.49,3.77-.62,1.6-.66,1.69l-.54-.41c0-.05,0-.17,0-.33s0-.58,0-1.22c0-.93.08-1.84.14-2.74s.12-1.8.16-2.73.05-1.88,0-2.85a22.34,22.34,0,0,0-.33-3.05,3.49,3.49,0,0,0-1.73-2.61,4.6,4.6,0,0,0-3.1-.47,4.87,4.87,0,0,0-3,1.66,14.28,14.28,0,0,0-2,3.21c-.62,1.25-1.24,2.69-1.88,4.3s-1.22,3.14-1.76,4.61-1,2.72-1.34,3.76-.56,1.61-.6,1.7l-.53-.41c0-1.75-.07-3.45-.12-5.09,0-.7,0-1.42-.06-2.15s-.07-1.45-.11-2.14-.09-1.34-.16-1.95-.14-1.13-.22-1.59a17.28,17.28,0,0,0-.44-2,1.72,1.72,0,0,0-.7-1A2.38,2.38,0,0,0,297,367a19.67,19.67,0,0,0-2.44.33,7.61,7.61,0,0,0-1.64.44,2.37,2.37,0,0,0-1,.76,3.85,3.85,0,0,0-.61,1.35,16.14,16.14,0,0,0-.41,2.21c-.12.89-.22,2-.31,3.41-.06.93-.1,1.94-.13,3-.4-.3-.79-.61-1.2-.9A35.85,35.85,0,0,0,282.9,374a28,28,0,0,0-6.89-2.09,22,22,0,0,0-7.45.09,19.77,19.77,0,0,0-7.84,3.1,18.15,18.15,0,0,0-5.31,5.6,20.39,20.39,0,0,0-2.64,7.43,25.91,25.91,0,0,0,.15,8.59c.05.29.11.57.17.85q-1.65,2.31-3.09,4.12a43.56,43.56,0,0,1-3.5,4,18.2,18.2,0,0,1-2.92,2.43,6.7,6.7,0,0,1-2.34,1,4.52,4.52,0,0,1-4.12-.88,7.24,7.24,0,0,1-1.93-4.12,41.22,41.22,0,0,1-.48-7.65c.06-3,.26-6.24.62-9.74l2.74-.74c.92-.25,1.85-.51,2.81-.79l1.84-.5.84-.21a1.62,1.62,0,0,0,.3-.1l.26-.08.68-.21,1.59-.47a7,7,0,0,0,1.1-.39,3.89,3.89,0,0,0,1.08-.69,3.18,3.18,0,0,0,.75-1.08,2.7,2.7,0,0,0,.11-1.49,5.49,5.49,0,0,0-.41-1.35,2.47,2.47,0,0,0-.77-.95,2.8,2.8,0,0,0-1.31-.48,6.52,6.52,0,0,0-2,.1l-.71.15-.82.21-2.85.74c-1.26.32-2.73.69-4.42,1.1q.42-3.3.93-6.67c.35-2.24,0-.39.32-2.53s.72-4.24,1.08-6.28.2-1.36.52-3.15a10.86,10.86,0,0,0,.18-2.78c-.07-.84-.16-1.57-.27-2.2a4.59,4.59,0,0,0-.67-1.78,3.59,3.59,0,0,0-1.19-1.14,4.23,4.23,0,0,0-1.54-.5,5.66,5.66,0,0,0-1.69.05,5.28,5.28,0,0,0-3.35,2,10.18,10.18,0,0,0-1.8,4.14c-1,5-1.45,7.47-2.25,12.61s-.76,6-1.34,10.81l-10.42,2.45q-5.2,1.22-9.33,2.25c.32-2.61.6-5.15.84-7.64s.42-4.83.53-7,.16-4.18.13-6a30.23,30.23,0,0,0-.37-4.55,17.42,17.42,0,0,0-2.34-6.42,12,12,0,0,0-3.92-3.87,12.38,12.38,0,0,0-5-1.67,19.46,19.46,0,0,0-5.58.2,21,21,0,0,0-4.1,1.23,30.5,30.5,0,0,0-4.31,2.3,17.53,17.53,0,0,1-3.6,2.22,6.38,6.38,0,0,1-4.95-.82,12.54,12.54,0,0,1-3.91-3.73,23.83,23.83,0,0,1-2.85-5.64,39.52,39.52,0,0,1-1.74-6.5,54.56,54.56,0,0,1-.81-9.12,49.87,49.87,0,0,1,.88-9.77,44.71,44.71,0,0,1,3-9.59,32.76,32.76,0,0,1,5.48-8.56,32.13,32.13,0,0,1,8.34-6.69,36.13,36.13,0,0,1,11.64-4,22.75,22.75,0,0,1,6.57-.32,15.16,15.16,0,0,1,5,1.41,10,10,0,0,1,3.4,2.73,8.29,8.29,0,0,1,1.63,3.65A10.08,10.08,0,0,1,209,303a10.8,10.8,0,0,1-2.83,4.64,21.68,21.68,0,0,1-6.29,4.24,45.54,45.54,0,0,1-10.69,3.27c-3.39.76-9.77.62-10.31.64l-1.77.07c-.65,0-1.25,0-1.83.07s-1,.07-1.16.1a1.57,1.57,0,0,0-1,.53,2.46,2.46,0,0,0-.44.94,3.65,3.65,0,0,0-.07,1.1,7.63,7.63,0,0,0,.11,1,3.85,3.85,0,0,0,2.18,2.72,18.85,18.85,0,0,0,5.32,1.94c5.31.78,11.38-1.06,11.38-1.06a3.21,3.21,0,0,1,2.91,1,14,14,0,0,1,2.51,3.54,51.11,51.11,0,0,1,2.38,5.21c.78,2,1.61,4,2.48,6s1.81,4.05,2.83,6a25,25,0,0,0,3.41,5,13.09,13.09,0,0,0,4.24,3.23,8.84,8.84,0,0,0,5.33.56,23.93,23.93,0,0,0,5.08-1.49,37.29,37.29,0,0,0,4.56-2.28,36.13,36.13,0,0,0,3.84-2.6c1.14-.88,2.12-1.69,2.94-2.41s1.46-1.31,1.91-1.76a4.92,4.92,0,0,1,.68-.65l-6.13-7.13a25.33,25.33,0,0,1-2.69,3.17,27.56,27.56,0,0,1-3,2.64,20.87,20.87,0,0,1-3.14,1.92,11.42,11.42,0,0,1-2.94,1,3.25,3.25,0,0,1-2.56-.49,7,7,0,0,1-1.92-2.18,22.26,22.26,0,0,1-1.65-3.35c-.52-1.29-1.09-2.64-1.71-4s-1.3-2.81-2.07-4.24a20.64,20.64,0,0,0-2.8-4,17.26,17.26,0,0,0-3.86-3.15,15.39,15.39,0,0,0-5.24-1.87,41.6,41.6,0,0,0,8.18-2.83,34.08,34.08,0,0,0,6.21-3.76,24,24,0,0,0,4.39-4.39,21.67,21.67,0,0,0,2.72-4.66,17.58,17.58,0,0,0,1.23-4.6,14.47,14.47,0,0,0-.08-4.23,15.71,15.71,0,0,0-2-5.39,17,17,0,0,0-3.49-4.18,19.11,19.11,0,0,0-4.68-3,25.42,25.42,0,0,0-5.55-1.82,30.68,30.68,0,0,0-6-.65,33.48,33.48,0,0,0-6.16.51,46.3,46.3,0,0,0-23.17,11.28,47.31,47.31,0,0,0-8,9.44,49.65,49.65,0,0,0-7.85,23.33,49.52,49.52,0,0,0,.63,12.62,45.29,45.29,0,0,0,1.8,6.93,43.72,43.72,0,0,0,2.84,6.56,34.91,34.91,0,0,0,3.81,5.72,23.5,23.5,0,0,0,4.7,4.37,17.72,17.72,0,0,0,3.81,2c.41.14.84.27,1.28.38,3.32.8,7.63.6,12.48-2.67h0a20.17,20.17,0,0,1,3.09-1.79,11.73,11.73,0,0,1,2.75-.91,5.53,5.53,0,0,1,2.62.08,4.62,4.62,0,0,1,1.92,1.16,6.44,6.44,0,0,1,1.35,2.11,15.05,15.05,0,0,1,.8,2.88,23.08,23.08,0,0,1,.33,4.18,38.46,38.46,0,0,1-.33,4.5q-.54,3.58-1.24,7.33t-1.48,7.79l-3.9.7c-1.47.26-2.83.52-4.1.77s-2.54.52-3.8.8a23.23,23.23,0,0,0-2.87-2.23,2.74,2.74,0,0,0-1.86-.53c-.84.15-1.15.82-.94,2a7.41,7.41,0,0,0,.3,1.12c.14.37.31.79.5,1.25a12.22,12.22,0,0,0,2.94,3.42,10.48,10.48,0,0,0,3.53,1.81,14.18,14.18,0,0,0,4,.52,25.39,25.39,0,0,0,4.35-.42q-1.09,5.85-2.08,12t-1.57,12.67a4.66,4.66,0,0,0,.06,1.29,4.08,4.08,0,0,0,.77,1.83,4.48,4.48,0,0,0,1.41,1.26,5.51,5.51,0,0,0,1.84.64,5.92,5.92,0,0,0,2,0,5.41,5.41,0,0,0,3.07-2.4,20.58,20.58,0,0,0,2.8-6.79c.21-1.18.46-2.62.76-4.31s.63-3.55,1-5.58.7-4.21,1.06-6.52.71-4.68,1.06-7.09q4.89-1.33,9.79-2.71t10.26-2.92c-.18,2.1-.34,4.1-.46,6s-.21,3.61-.26,5.18,0,3,0,4.19a23.13,23.13,0,0,0,.28,3,18.61,18.61,0,0,0,2,5.91,13.63,13.63,0,0,0,3.34,4,10.88,10.88,0,0,0,4.3,2.11,12.17,12.17,0,0,0,4.93.11,17,17,0,0,0,4.74-1.71,29.18,29.18,0,0,0,5.13-3.47A47.61,47.61,0,0,0,253.5,410c1-1.18,2.06-2.46,3.06-3.81a16.85,16.85,0,0,0,1.65,2.09,13.14,13.14,0,0,0,4.89,3.34,11.66,11.66,0,0,0,6.39.48,13.07,13.07,0,0,0,4.53-1.69,15.78,15.78,0,0,0,3.63-3,17.63,17.63,0,0,0,2.68-4,23.9,23.9,0,0,0,1.68-4.7,25.39,25.39,0,0,0,.68-5,23.63,23.63,0,0,0-.33-4.93,23.23,23.23,0,0,0-1.49-4.91,22.1,22.1,0,0,0-2.65-4.67l.24-.5c1.09.47,2.4,1.07,3.93,1.79s3.08,1.5,4.67,2.34c1.14.6,2.23,1.22,3.3,1.86v.67c0,1.8.09,3.56.17,5.28s.19,3.35.32,4.89.31,2.87.51,4a27.33,27.33,0,0,0,.74,3.12,9.39,9.39,0,0,0,1.21,2.59,4.74,4.74,0,0,0,1.91,1.63A4.6,4.6,0,0,0,298,407a4.85,4.85,0,0,0,2.27-1,4.91,4.91,0,0,0,1.49-2.59q1.8-6.15,2.9-10.23t1.81-6.63c.48-1.71.86-3,1.13-3.89a11.22,11.22,0,0,1,.8-2l.61-.11q0,3.86.15,7.19c0,.94.05,1.89.08,2.85s.07,1.87.11,2.73.09,1.62.16,2.28.12,1.17.18,1.52a23.25,23.25,0,0,0,.61,2.57,9.54,9.54,0,0,0,1,2.36,4.66,4.66,0,0,0,1.52,1.62,3,3,0,0,0,2.2.34,7.33,7.33,0,0,0,2.9-1.12,5.76,5.76,0,0,0,2-2.72l4.51-22.49.61-.11q.2,3,.53,5.89t.78,5.46a44.94,44.94,0,0,0,1.16,5,18.5,18.5,0,0,0,1.59,3.87,6.81,6.81,0,0,0,2.08,2.37,3.45,3.45,0,0,0,2.63.52,16.86,16.86,0,0,0,5.19-1.74,20.84,20.84,0,0,0,4-2.8,31.92,31.92,0,0,0,3.25-3.43c.4-.49.81-.95,1.21-1.43a15.37,15.37,0,0,0,1.46,1.45,13.88,13.88,0,0,0,5.44,2.87,15.38,15.38,0,0,0,6.93.19,22.09,22.09,0,0,0,4.72-1.4,29.3,29.3,0,0,0,4.33-2.29,35.54,35.54,0,0,0,3.86-2.84q1.8-1.55,3.33-3.07a54.28,54.28,0,0,0,6.43-7.9ZM274.47,392.55a24.09,24.09,0,0,1-.72,5,13.43,13.43,0,0,1-1.65,3.94,3.8,3.8,0,0,1-2.43,1.89,5.44,5.44,0,0,1-2.84-.19,5.32,5.32,0,0,1-2.15-1.46,8.51,8.51,0,0,1-1.49-2.44,15.72,15.72,0,0,1-.89-3.16,22.15,22.15,0,0,1-.27-5.27,21.88,21.88,0,0,1,.92-5.22,13.33,13.33,0,0,1,2-4.11,4.65,4.65,0,0,1,2.92-2,3.51,3.51,0,0,1,2.28.31,5.21,5.21,0,0,1,1.79,1.61,10.78,10.78,0,0,1,1.35,2.63,20.29,20.29,0,0,1,.9,3.42A21.85,21.85,0,0,1,274.47,392.55ZM352.41,377c-.11-.6-.21-1.32-.3-2.17a19.3,19.3,0,0,1-.12-2.67,15,15,0,0,1,.3-2.8,8.58,8.58,0,0,1,.92-2.59,6.24,6.24,0,0,1,4.64-3.24,2.43,2.43,0,0,1,2.15.91,4.81,4.81,0,0,1,.92,2.86,5.35,5.35,0,0,1-.54,2.87,13.91,13.91,0,0,1-2.05,3,14.29,14.29,0,0,1-2.87,2.51A8.39,8.39,0,0,1,352.41,377Z" transform="translate(-152.54 -259.37)"/></g></svg>